<?xml version="1.0" encoding="UTF-8" standalone="no"?><!DOCTYPE svg PUBLIC "-//W3C//DTD SVG 1.1//EN" "http://www.w3.org/Graphics/SVG/1.1/DTD/svg11.dtd"><svg width="100%" height="100%" viewBox="0 0 2787 3116" version="1.1" xmlns="http://www.w3.org/2000/svg" xmlns:xlink="http://www.w3.org/1999/xlink" xml:space="preserve" xmlns:serif="http://www.serif.com/" style="fill-rule:evenodd;clip-rule:evenodd;stroke-linejoin:round;stroke-miterlimit:2;"><g><path d="M2568.72,2590.27c-10.281,72.339 -29.337,142.618 -52.599,211.759c-33.905,100.627 -96.784,173.637 -200.891,204.946c-59.322,17.852 -119.979,26.404 -182.007,25.505c-36.279,-0.55 -72.937,-3.764 -108.639,-10.436c-101.464,-18.994 -189.147,-65.003 -254.025,-146.237c-106.957,-133.937 -145.624,-284.338 -152.193,-357.669c-4.268,-47.354 5.136,-91.105 36.347,-128.35c21.735,-25.946 49.239,-44.643 79.64,-58.912c100.139,-46.996 206.343,-67.043 316.208,-71.898c211.198,-9.331 386.949,38.075 435.497,63.554c47.821,25.043 80.585,61.737 87.179,117.041c5.971,50.324 2.493,100.736 -4.517,150.697Zm-1308.93,-72.132c-6.584,73.331 -45.256,223.732 -152.208,357.669c-64.873,81.234 -152.567,127.243 -254.025,146.237c-35.697,6.672 -72.35,9.886 -108.634,10.436c-62.033,0.899 -122.684,-7.653 -182.038,-25.505c-104.054,-31.309 -166.985,-104.319 -200.86,-204.946c-23.252,-69.141 -42.349,-139.42 -52.573,-211.759c-7.082,-49.961 -10.509,-100.373 -4.533,-150.697c6.548,-55.304 39.322,-91.998 87.138,-117.041c48.585,-25.479 224.335,-72.885 435.508,-63.554c109.895,4.855 216.079,24.902 316.223,71.898c30.391,14.269 57.895,32.966 79.63,58.912c31.216,37.245 40.604,80.996 36.372,128.35Zm1506.6,-258.854c-80.637,-15.883 -161.014,-33.065 -241.547,-49.623c-92.891,-19.097 -186.198,-35.531 -281.41,-36.263c-320.029,-9.144 -490.67,62.033 -567.262,79.011c-78.81,17.473 -157.889,25.526 -237.098,24.872c-79.224,0.654 -158.304,-7.399 -237.092,-24.872c-76.613,-16.978 -247.249,-88.155 -567.258,-79.011c-95.202,0.732 -188.534,17.166 -281.451,36.263c-80.501,16.558 -160.874,33.74 -241.511,49.623c-13.723,2.726 -19.964,8.282 -19.783,21.741l0,105.513c0.93,2.03 2.446,3.967 2.659,6.075c2.581,24.373 13.183,44.94 29.207,63.082c12.254,13.879 24.404,27.836 36.616,41.741c19.539,22.249 33.133,47.266 40.018,76.462c13.821,58.814 32.13,116.153 50.194,173.528c71.701,227.944 178.362,337.481 415.621,363.734c67.915,7.98 135.706,5.291 203.487,-2.757c93.737,-11.18 177.183,-46.108 245.655,-111.387c54.28,-51.762 99.386,-109.241 135.016,-172.421c24.051,-42.676 90.866,-204.298 115.228,-233.225c20.822,-24.699 45.475,-42.54 73.394,-42.629c27.893,0.089 52.573,17.93 73.373,42.629c24.394,28.927 91.193,190.549 115.254,233.225c35.625,63.18 80.736,120.659 135.006,172.421c68.461,65.279 151.907,100.207 245.665,111.387c67.771,8.048 135.551,10.737 203.467,2.757c237.249,-26.253 343.951,-135.79 415.657,-363.734c18.017,-57.375 36.347,-114.714 50.158,-173.528c6.906,-29.196 20.51,-54.213 40.033,-76.462c12.202,-13.905 24.352,-27.862 36.606,-41.741c16.044,-18.142 26.636,-38.709 29.232,-63.082c0.208,-2.108 1.714,-4.045 2.649,-6.075l-0,-105.513c0.208,-13.459 -6.075,-19.015 -19.783,-21.741Z" style="fill:#f04f50;fill-rule:nonzero;"/><path d="M2146.54,2630.32c-9.964,22.161 -29.731,38.808 -53.751,44.737c0.026,0.857 0.265,1.641 0.265,2.498c0,54.727 -44.405,99.132 -99.122,99.132c-54.737,-0 -99.132,-44.405 -99.132,-99.132c0,-54.733 44.395,-99.122 99.132,-99.122c0.847,0 1.631,0.229 2.492,0.255c5.93,-24.02 22.572,-43.782 44.743,-53.746c-14.928,-4.616 -30.806,-7.109 -47.235,-7.109c-88.223,0 -159.747,71.515 -159.747,159.722c-0,88.212 71.524,159.727 159.747,159.727c88.197,-0 159.716,-71.515 159.716,-159.727c0,-16.434 -2.497,-32.312 -7.108,-47.235Z" style="fill:#6f6f6e;fill-opacity:0.58;fill-rule:nonzero;"/><path d="M1894.8,2677.55c0,54.727 44.395,99.132 99.132,99.132c54.717,-0 99.122,-44.405 99.122,-99.132c0,-0.857 -0.239,-1.641 -0.265,-2.498c-6.096,1.501 -12.425,2.498 -19.009,2.498c-44.099,-0 -79.848,-35.755 -79.848,-79.858c0,-6.589 0.987,-12.914 2.492,-19.009c-0.861,-0.026 -1.645,-0.255 -2.492,-0.255c-54.737,0 -99.132,44.389 -99.132,99.122Z" style="fill:#252d33;fill-rule:nonzero;"/><path d="M1036.85,2630.32c-9.97,22.161 -29.737,38.808 -53.741,44.737c0.016,0.857 0.244,1.641 0.244,2.498c0,54.727 -44.394,99.132 -99.122,99.132c-54.727,-0 -99.127,-44.405 -99.127,-99.132c0,-54.733 44.4,-99.122 99.127,-99.122c0.852,0 1.641,0.229 2.493,0.255c5.929,-24.02 22.576,-43.782 44.742,-53.746c-14.923,-4.616 -30.801,-7.109 -47.235,-7.109c-88.207,0 -159.726,71.515 -159.726,159.722c-0,88.212 71.519,159.727 159.726,159.727c88.208,-0 159.727,-71.515 159.727,-159.727c0,-16.434 -2.498,-32.312 -7.108,-47.235Z" style="fill:#6f6f6e;fill-opacity:0.58;fill-rule:nonzero;"/><path d="M785.106,2677.55c0,54.727 44.4,99.132 99.127,99.132c54.728,-0 99.122,-44.405 99.122,-99.132c0,-0.857 -0.228,-1.641 -0.244,-2.498c-6.111,1.501 -12.425,2.498 -19.009,2.498c-44.109,-0 -79.869,-35.755 -79.869,-79.858c0,-6.589 1.002,-12.914 2.493,-19.009c-0.852,-0.026 -1.641,-0.255 -2.493,-0.255c-54.727,0 -99.127,44.389 -99.127,99.122Z" style="fill:#252d33;fill-rule:nonzero;"/><path d="M450.237,2140.21l12.296,-276.699l128.91,-162.526l4.72,-297.572c119.148,19.798 230.674,34.83 335.793,46.372c-20.359,-57.39 -38.247,-130.291 -33.677,-202.781c-0.005,-0 13.069,95.731 62.183,192.765c31.73,62.698 74.251,114.574 129.622,157.666c64.499,50.194 150.037,91.65 263.563,114.74c-0,-0 -108.525,-121.947 -152.852,-239.445c-13.085,-34.674 -20.64,-68.97 -18.08,-99.615c0,0 16.112,43.735 53.616,101.568c69.541,107.253 212.844,263.153 464.782,279.529c274.404,17.856 453.981,-120.493 453.981,-120.493c0,-0 -313.96,9.361 -437.828,-162.38c137.95,-10.094 244.814,-26.959 321.816,-43.013c50.682,-7.742 101.671,-20.386 149.087,-39.945c2.145,-0.795 3.349,-1.262 3.349,-1.262c0,-0 67.262,339.07 131.709,437.148l103.691,81.276c0,-0 10.956,136.984 16.771,237.373c30.993,5.316 61.581,11.231 91.333,17.352c15.162,3.1 30.324,6.267 45.433,9.424c4.05,-111.396 12.306,-282.219 28.61,-463.119c0,-0 106.495,-425.938 -204.583,-588.469c-0,0 60.964,-451.863 -527.51,-514.913c-393.532,-42.162 -489.503,-196.287 -496.003,-212.274c3.795,71.421 58.933,226.646 161.642,262.302c-42.478,-6.886 -104.594,-11.74 -199.489,-13.537c-215.389,-4.086 -444.127,17.14 -638.896,-91.136c-232.731,-129.377 -359.461,-414.966 -357.285,-548.544c-0,-0 -158.699,374.227 74.629,732.909c2.991,4.963 6.049,9.912 9.185,14.829c-246.319,-156.84 -295.677,-424.105 -305.117,-506.824c-0.706,-8.401 -1.625,-16.522 -2.175,-25.131c-0,0 -274.623,582.871 137.306,1078.87c-0,-0 -196.161,-134.497 -260.604,-347.477c0,0 -14.008,439.942 215.773,686.542l88.67,534.525c12.846,-2.659 25.676,-5.348 38.511,-7.976c34.81,-7.17 70.632,-14.112 107.118,-20.058Z" style="fill:#252d33;fill-rule:nonzero;"/></g></svg>